#define sablier_width 48
#define sablier_height 48
static unsigned char sablier_bits[] = {
   0x00, 0x00, 0x00, 0x00, 0x00, 0x00, 0x00, 0x00, 0x00, 0x00, 0x00, 0x00,
   0x00, 0x00, 0x00, 0x00, 0x00, 0x00, 0xe0, 0xff, 0xff, 0xff, 0xff, 0x03,
   0xc0, 0x88, 0x40, 0x20, 0xc4, 0x00, 0x80, 0x00, 0x00, 0x00, 0x80, 0x00,
   0x80, 0x00, 0x00, 0x00, 0x80, 0x00, 0x80, 0x20, 0x01, 0x00, 0x80, 0x00,
   0x80, 0xfc, 0x3f, 0x00, 0x80, 0x00, 0x80, 0xfd, 0xff, 0x2b, 0x90, 0x00,
   0x00, 0xfc, 0xff, 0xff, 0x5f, 0x00, 0x00, 0xfd, 0xff, 0xff, 0x5f, 0x00,
   0x00, 0xf9, 0xff, 0xff, 0x4f, 0x00, 0x00, 0xfa, 0xff, 0xff, 0x4f, 0x00,
   0x00, 0xf2, 0xff, 0xff, 0x27, 0x00, 0x00, 0xe4, 0xff, 0xff, 0x17, 0x00,
   0x00, 0xe8, 0xff, 0xff, 0x09, 0x00, 0x00, 0x90, 0xff, 0xff, 0x04, 0x00,
   0x00, 0x20, 0xff, 0x7f, 0x03, 0x00, 0x00, 0x80, 0xfc, 0x9f, 0x00, 0x00,
   0x00, 0x00, 0xf1, 0x47, 0x00, 0x00, 0x00, 0x00, 0xe4, 0x13, 0x00, 0x00,
   0x00, 0x00, 0xd8, 0x0d, 0x00, 0x00, 0x00, 0x00, 0x90, 0x00, 0x00, 0x00,
   0x00, 0x00, 0xa0, 0x02, 0x00, 0x00, 0x00, 0x00, 0x90, 0x04, 0x00, 0x00,
   0x00, 0x00, 0x88, 0x08, 0x00, 0x00, 0x00, 0x00, 0x84, 0x10, 0x00, 0x00,
   0x00, 0x00, 0x01, 0x40, 0x00, 0x00, 0x00, 0x80, 0x80, 0x00, 0x01, 0x00,
   0x00, 0x20, 0x00, 0x00, 0x02, 0x00, 0x00, 0x10, 0x80, 0x00, 0x04, 0x00,
   0x00, 0x08, 0x00, 0x00, 0x08, 0x00, 0x00, 0x04, 0x80, 0x00, 0x10, 0x00,
   0x00, 0x02, 0x80, 0x00, 0x20, 0x00, 0x00, 0x02, 0x80, 0x00, 0x40, 0x00,
   0x00, 0x01, 0x80, 0x01, 0x40, 0x00, 0x00, 0x01, 0xc0, 0x01, 0x40, 0x00,
   0x80, 0x00, 0xe0, 0x03, 0x80, 0x00, 0x80, 0x00, 0xf8, 0x0f, 0x80, 0x00,
   0x80, 0x00, 0xfe, 0x3f, 0x80, 0x00, 0x80, 0x80, 0xff, 0xff, 0x80, 0x00,
   0x80, 0xf0, 0xff, 0xff, 0x87, 0x00, 0x80, 0x54, 0xb5, 0xaa, 0x96, 0x00,
   0xc0, 0x49, 0x42, 0x22, 0xc9, 0x01, 0xe0, 0xff, 0xff, 0xff, 0xff, 0x03,
   0x00, 0x00, 0x00, 0x00, 0x00, 0x00, 0x00, 0x00, 0x00, 0x00, 0x00, 0x00 };
